<svg xmlns="http://www.w3.org/2000/svg" version="1.1" xmlns:xlink="http://www.w3.org/1999/xlink" xmlns:svgjs="http://svgjs.dev/svgjs" width="1440" height="560" preserveAspectRatio="none" viewBox="0 0 1440 560"><g mask="url(&quot;#SvgjsMask1050&quot;)" fill="none"><path d="M1488 560L0 560 L0 359.07Q7.78 294.85, 72 302.62Q125.72 236.34, 192 290.06Q273.2 251.26, 312 332.47Q334.85 283.32, 384 306.16Q463.39 265.56, 504 344.95Q555.78 276.74, 624 328.52Q705.64 290.16, 744 371.8Q760.83 268.63, 864 285.45Q908.81 258.26, 936 303.07Q1023.99 271.06, 1056 359.05Q1074.9 305.95, 1128 324.85Q1178.46 255.31, 1248 305.77Q1351.86 289.63, 1368 393.49Q1405.13 310.62, 1488 347.75z" fill="rgba(106, 158, 241, 1)"></path><path d="M1536 560L0 560 L0 387.4Q89.22 356.62, 120 445.83Q120.9 374.73, 192 375.63Q234.59 346.22, 264 388.81Q350.7 355.51, 384 442.22Q433.22 419.44, 456 468.66Q485.11 377.77, 576 406.88Q623.22 382.1, 648 429.32Q714.92 424.25, 720 491.17Q739.89 391.07, 840 410.96Q865.33 364.29, 912 389.62Q991.46 349.08, 1032 428.54Q1125.31 401.85, 1152 495.16Q1200.21 423.37, 1272 471.58Q1264.67 392.25, 1344 384.93Q1414.19 383.13, 1416 453.32Q1482.13 399.44, 1536 465.57z" fill="rgba(215, 71, 138, 1)"></path><path d="M1488 560L0 560 L0 576.9Q1.52 506.42, 72 507.95Q117.85 433.8, 192 479.65Q252.01 467.66, 264 527.68Q334.39 478.07, 384 548.46Q425.43 469.89, 504 511.32Q573.07 460.39, 624 529.46Q636.81 470.27, 696 483.08Q748.39 415.47, 816 467.86Q881.7 461.56, 888 527.27Q956.91 524.18, 960 593.1Q995.58 508.68, 1080 544.27Q1126.36 518.63, 1152 564.99Q1225.72 518.72, 1272 592.44Q1300.87 549.31, 1344 578.18Q1341.02 503.2, 1416 500.22Q1444.25 456.48, 1488 484.73z" fill="rgba(255, 255, 255, 1)"></path></g><defs><mask id="SvgjsMask1050"><rect width="1440" height="560" fill="#ffffff"></rect></mask></defs></svg>