<svg xmlns="http://www.w3.org/2000/svg" version="1.1" xmlns:xlink="http://www.w3.org/1999/xlink" xmlns:svgjs="http://svgjs.dev/svgjs" width="1440" height="560" preserveAspectRatio="none" viewBox="0 0 1440 560"><g mask="url(&quot;#SvgjsMask1017&quot;)" fill="none"><path d="M -18.03736126692371,200 C 39.56,226 154.76,341.4 269.9626387330763,330 C 385.16,318.6 442.76,116.2 557.9626387330763,143 C 673.16,169.8 730.76,473.6 845.9626387330763,464 C 961.16,454.4 1018.76,101.8 1133.9626387330763,95 C 1249.16,88.2 1306.76,419 1421.9626387330763,430 C 1537.16,441 1706.36,144.8 1709.9626387330763,150 C 1713.57,155.2 1493.99,394.8 1440,456" stroke="rgba(215, 71, 138, 1)" stroke-width="2"></path><path d="M -551.0482739118963,314 C -493.45,297 -378.25,213 -263.04827391189633,229 C -147.85,245 -90.25,412.8 24.95172608810367,394 C 140.15,375.2 197.75,119.4 312.95172608810367,135 C 428.15,150.6 485.75,445.8 600.9517260881037,472 C 716.15,498.2 773.75,290.2 888.9517260881037,266 C 1004.15,241.8 1066.74,368.8 1176.9517260881037,351 C 1287.16,333.2 1387.39,211.8 1440,177" stroke="rgba(215, 71, 138, 1)" stroke-width="2"></path><path d="M -38.870851672756146,440 C 18.73,390 133.93,220.8 249.12914832724385,190 C 364.33,159.2 421.93,278.6 537.1291483272439,286 C 652.33,293.4 709.93,224.6 825.1291483272439,227 C 940.33,229.4 997.93,290.2 1113.129148327244,298 C 1228.33,305.8 1285.93,259 1401.129148327244,266 C 1516.33,273 1681.35,373.2 1689.129148327244,333 C 1696.9,292.8 1489.83,118.6 1440,65" stroke="rgba(215, 71, 138, 1)" stroke-width="2"></path><path d="M -370.74269282565825,306 C -313.14,296.4 -197.94,251.4 -82.74269282565825,258 C 32.46,264.6 90.06,375.6 205.25730717434175,339 C 320.46,302.4 378.06,84.8 493.25730717434175,75 C 608.46,65.2 666.06,291 781.2573071743418,290 C 896.46,289 954.06,70.2 1069.2573071743418,70 C 1184.46,69.8 1283.11,276.8 1357.2573071743418,289 C 1431.41,301.2 1423.45,162.6 1440,131" stroke="rgba(215, 71, 138, 1)" stroke-width="2"></path><path d="M -491.726008454071,326 C -434.13,305 -318.93,226.8 -203.726008454071,221 C -88.53,215.2 -30.93,299.2 84.273991545929,297 C 199.47,294.8 257.07,169.6 372.273991545929,210 C 487.47,250.4 545.07,516.2 660.273991545929,499 C 775.47,481.8 833.07,124.2 948.273991545929,124 C 1063.47,123.8 1137.93,489.2 1236.273991545929,498 C 1334.62,506.8 1399.25,234 1440,168" stroke="rgba(215, 71, 138, 1)" stroke-width="2"></path></g><defs><mask id="SvgjsMask1017"><rect width="1440" height="560" fill="#ffffff"></rect></mask></defs></svg>